<mxfile host="app.diagrams.net" modified="2024-01-16T02:15:06.128Z" agent="Mozilla/5.0 (X11; Linux x86_64) AppleWebKit/537.36 (KHTML, like Gecko) Chrome/120.0.0.0 Safari/537.36" version="22.1.18" etag="G9KqI_-a9l2wxQv5RWIH" type="github">
  <diagram name="Page-1" id="oxAUKG_GVLwP3e_J9wfY">
    <mxGraphModel>
      <root>
        <mxCell id="0" />
        <mxCell id="1" parent="0" />
      </root>
    </mxGraphModel>
  </diagram>
</mxfile>
